<svg width="17" height="16" viewBox="0 0 17 16" fill="none" xmlns="http://www.w3.org/2000/svg">
<path d="M14.8591 3.07357C14.5186 2.73291 14.1143 2.46267 13.6694 2.2783C13.2244 2.09392 12.7474 1.99902 12.2658 1.99902C11.7841 1.99902 11.3072 2.09392 10.8622 2.2783C10.4172 2.46267 10.013 2.73291 9.67245 3.07357L8.96579 3.78024L8.25912 3.07357C7.57133 2.38578 6.63848 1.99938 5.66579 1.99938C4.6931 1.99938 3.76025 2.38578 3.07245 3.07357C2.38466 3.76137 1.99826 4.69422 1.99826 5.66691C1.99826 6.6396 2.38466 7.57245 3.07245 8.26024L3.77912 8.96691L8.96579 14.1536L14.1525 8.96691L14.8591 8.26024C15.1998 7.91974 15.47 7.51545 15.6544 7.07048C15.8388 6.6255 15.9337 6.14857 15.9337 5.66691C15.9337 5.18525 15.8388 4.70831 15.6544 4.26334C15.47 3.81836 15.1998 3.41408 14.8591 3.07357Z" fill="#65EADA"/>
</svg>
