<svg width="16" height="16" viewBox="0 0 16 16" fill="none" xmlns="http://www.w3.org/2000/svg">
<g clip-path="url(#clip0_139_717)">
<path d="M6.58254 7.52001C6.91457 7.35299 7.16559 7.16698 7.3376 6.96596C7.64363 6.60393 7.79464 6.12389 7.79464 5.52884C7.79464 4.94979 7.64363 4.45475 7.3416 4.03972C6.83756 3.36366 5.98449 3.01764 4.77839 2.99963H0V12.7534H4.45537C4.95741 12.7534 5.42245 12.7104 5.85248 12.6224C6.28252 12.5334 6.65455 12.3704 6.96957 12.1324C7.2496 11.9254 7.48361 11.6683 7.66963 11.3653C7.96365 10.9073 8.11067 10.3882 8.11067 9.81019C8.11067 9.25015 7.98166 8.77311 7.72563 8.38108C7.46661 7.98904 7.08658 7.70202 6.58254 7.52001ZM1.97116 4.69377H4.12334C4.59638 4.69377 4.98641 4.74478 5.29243 4.84579C5.64646 4.9928 5.82348 5.29182 5.82348 5.74786C5.82348 6.15689 5.68847 6.44292 5.42145 6.60393C5.15242 6.76494 4.80339 6.84595 4.37536 6.84595H1.97116V4.69377ZM5.37444 10.8893C5.13642 11.0043 4.80139 11.0613 4.37236 11.0613H1.97116V8.46008H4.40536C4.8294 8.46308 5.15942 8.51909 5.39544 8.6241C5.81548 8.81411 6.0245 9.16214 6.0245 9.67118C6.0245 10.2712 5.80848 10.6753 5.37444 10.8893Z" fill="#4A5367"/>
<path d="M14.462 3.45471H10.2246V4.66881H14.462V3.45471Z" fill="#4A5367"/>
<path d="M15.9342 8.24609C15.8462 7.68105 15.6521 7.18401 15.3501 6.75497C15.0191 6.26893 14.5991 5.91291 14.088 5.68789C13.579 5.46187 13.0059 5.34886 12.3679 5.34986C11.2968 5.34986 10.4267 5.68489 9.75366 6.34994C9.08261 7.01699 8.74658 7.97607 8.74658 9.22617C8.74658 10.5593 9.11761 11.5224 9.86367 12.1134C10.6067 12.7055 11.4648 13.0005 12.4389 13.0005C13.618 13.0005 14.535 12.6494 15.1901 11.9494C15.6091 11.5074 15.8462 11.0723 15.8982 10.6453H13.946C13.833 10.8563 13.702 11.0213 13.552 11.1413C13.2799 11.3613 12.9259 11.4714 12.4919 11.4714C12.0789 11.4714 11.7288 11.3803 11.4368 11.1993C10.9548 10.9093 10.7027 10.4013 10.6707 9.67821H15.9982C16.0062 9.05516 15.9862 8.57612 15.9342 8.24609ZM10.7187 8.43311C10.7887 7.96407 10.9588 7.59204 11.2288 7.31702C11.4988 7.043 11.8808 6.90499 12.3699 6.90399C12.8209 6.90399 13.1979 7.033 13.505 7.29202C13.808 7.55304 13.979 7.93207 14.014 8.43311H10.7187Z" fill="#4A5367"/>
</g>
<defs>
<clipPath id="clip0_139_717">
<rect width="16" height="16" fill="white"/>
</clipPath>
</defs>
</svg>
