<svg width="16" height="16" viewBox="0 0 16 16" fill="none" xmlns="http://www.w3.org/2000/svg">
<g clip-path="url(#clip0_139_714)">
<path d="M4.23659 1.50476L4.23656 1.50477C3.08529 2.17658 2.17683 3.08504 1.50486 4.23634C0.835128 5.38383 0.5 6.63515 0.5 8.00002C0.5 9.36493 0.835219 10.6161 1.50479 11.7637C2.17672 12.9149 3.08517 13.8233 4.23646 14.4953C5.38397 15.1649 6.63518 15.5 8.00009 15.5C9.36504 15.5 10.6164 15.1649 11.7638 14.4953L11.7639 14.4953C12.915 13.8236 13.8234 12.9149 14.4953 11.7637C15.1649 10.6162 15.5 9.3649 15.5 8.00001C15.5 6.63501 15.1649 5.38366 14.4955 4.23636C13.8236 3.08517 12.9151 2.1767 11.7639 1.50478L4.23659 1.50476ZM4.23659 1.50476C5.38393 0.835132 6.63525 0.5 8.00024 0.5C9.36533 0.5 10.6163 0.83511 11.7638 1.50475L4.23659 1.50476ZM13.179 2.79942L12.9172 3.16569L12.7874 3.34732L12.787 3.34786L12.3803 3.0571L13.179 2.79942ZM13.179 2.79942L12.8421 2.50077M13.179 2.79942L12.8421 2.50077M12.8421 2.50077C11.4657 1.2806 9.84407 0.66669 8.00013 0.66669C7.43039 0.66669 6.85298 0.737899 6.26862 0.878405L5.51858 1.05875L5.98947 1.66976C6.88113 2.82675 7.72099 4.13036 8.50839 5.58216L8.71622 5.96536M12.8421 2.50077L8.71622 5.96536M8.71622 5.96536L9.12417 5.81168M8.71622 5.96536L9.12417 5.81168M9.12417 5.81168C9.62633 5.62252 10.1011 5.40157 10.5482 5.14871L9.12417 5.81168ZM0.742785 7.28125H1.17712C3.64816 7.28125 5.93626 6.96399 8.04446 6.33343L8.44178 6.21459L8.63202 6.58309C8.85821 7.02122 9.04774 7.41776 9.19946 7.77188L9.38618 8.20767L8.96091 8.41727C8.88908 8.45267 8.80707 8.4782 8.73845 8.49729L8.73783 8.49746C8.68746 8.51141 8.64586 8.52267 8.61385 8.53099L8.25282 8.65785C8.02397 8.74251 7.70508 8.89484 7.28893 9.12486L0.742785 7.28125ZM0.742785 7.28125L0.682039 7.71132C0.670163 7.7954 0.66669 7.8965 0.66669 8.00002C0.66669 8.92183 0.830491 9.80507 1.15941 10.6459L1.62505 10.4638M0.742785 7.28125L1.62505 10.4638M1.62505 10.4638L1.15942 10.6459C1.48658 11.4822 1.94865 12.2337 2.54479 12.8969L3.01097 13.4155L3.35254 12.8075C3.67865 12.2271 4.08249 11.6822 4.56588 11.1726L4.56597 11.1725M1.62505 10.4638L4.56597 11.1725M4.56597 11.1725C5.05816 10.6532 5.52611 10.2463 5.96901 9.94451M4.56597 11.1725L5.96901 9.94451M5.96901 9.94451C6.4375 9.62534 6.87733 9.35269 7.28869 9.125L5.96901 9.94451ZM2.25438 3.44938L2.25435 3.44942C1.5397 4.35025 1.06192 5.36568 0.823543 6.48987L0.695534 7.09355L1.31264 7.09358C3.45458 7.0937 5.60144 6.80991 7.75238 6.24387L8.37863 6.07907L8.06074 5.51489C7.21851 4.02009 6.3596 2.68861 5.48321 1.52242L5.2387 1.19706L4.87048 1.37045C3.84143 1.85503 2.9682 2.5498 2.25438 3.44938ZM8.00013 15.3335H8.00019C8.98454 15.3333 9.93894 15.1392 10.8602 14.7527L11.2278 14.5985L11.1593 14.2058C10.8617 12.497 10.3661 10.7368 9.67573 8.92589L9.55302 8.60399H9.20852H9.18754H9.0684L8.96539 8.65603C8.85495 8.69771 8.71231 8.75262 8.53829 8.82026C8.32075 8.90451 7.94614 9.0879 7.43614 9.35308L7.43583 9.35324C6.9052 9.62961 6.41165 9.92482 5.95571 10.2394L5.95552 10.2396C5.48366 10.5655 5.00338 10.9872 4.51407 11.4979C4.00888 12.0252 3.6167 12.585 3.34692 13.1788L3.60897 13.2978L3.32996 13.6585C3.54513 13.8339 3.76519 13.9956 3.99007 14.1436L4.00271 14.1529L4.00305 14.1521C5.20208 14.9376 6.53789 15.3335 8.00013 15.3335ZM14.1704 11.9642L14.1704 11.9641C14.722 11.1103 15.0801 10.175 15.2439 9.16307L15.3149 8.72444L14.8876 8.60242C13.3657 8.16774 11.8723 8.05967 10.4128 8.28729L9.81199 8.38099L10.0201 8.9524C10.6154 10.5872 11.0517 12.188 11.3312 13.7546L11.4662 14.5115L12.1033 14.0811C12.9307 13.522 13.6205 12.8149 14.1704 11.9642ZM12.3334 7.63035C12.097 7.61999 11.8575 7.61473 11.6144 7.61473C11.3716 7.61473 11.1162 7.62178 10.8489 7.63557C10.5816 7.64925 10.323 7.67384 10.0731 7.7085L12.3334 7.63035ZM9.46146 7.53723C9.4794 7.5895 9.50311 7.65181 9.5292 7.71853L9.52921 7.71857C9.56174 7.80179 9.60048 7.89307 9.64496 7.9668L9.81525 8.24904L10.1418 8.20376C10.3771 8.17113 10.6213 8.14787 10.8745 8.13491L10.8747 8.1349C11.1344 8.1215 11.3812 8.11473 11.6144 8.11473C11.8503 8.11473 12.0825 8.11983 12.3115 8.12987C12.542 8.14014 12.7576 8.15351 12.9582 8.17031L12.9584 8.17033C13.1626 8.18734 13.3538 8.20591 13.5322 8.22611C13.7101 8.24629 13.8687 8.26776 14.0081 8.29047L14.0082 8.29049C14.1569 8.31468 14.2833 8.33554 14.3871 8.35275C14.4874 8.36936 14.5689 8.38419 14.6319 8.39671L14.7357 8.41742L15.3414 8.53826L15.3335 7.9207C15.3115 6.1969 14.7545 4.66358 13.6682 3.33907L13.3176 2.91163L12.9274 3.30323L12.9169 3.31374L12.8921 3.33858L12.8711 3.36663C12.8121 3.44528 12.7495 3.52605 12.6831 3.60915C12.6371 3.66635 12.5101 3.79893 12.2747 4.0237L12.2746 4.02378C12.0558 4.23278 11.8235 4.43074 11.5777 4.61774C11.3393 4.79878 11.0112 5.01289 10.5869 5.26089C10.1738 5.50204 9.7385 5.71549 9.28063 5.90141L8.7909 6.10026L9.01662 6.5782C9.18487 6.93444 9.33306 7.25414 9.46146 7.53723Z" stroke="#4A5367"/>
</g>
<defs>
<clipPath id="clip0_139_714">
<rect width="16" height="16" fill="white"/>
</clipPath>
</defs>
</svg>
