<svg width="15" height="16" viewBox="0 0 15 16" fill="none" xmlns="http://www.w3.org/2000/svg">
<path d="M10.6667 14.6668V12.0868C10.6917 11.7689 10.6487 11.4493 10.5407 11.1493C10.4326 10.8493 10.262 10.5757 10.04 10.3468C12.1333 10.1135 14.3333 9.32012 14.3333 5.68012C14.3332 4.74934 13.9751 3.85425 13.3333 3.18012C13.6372 2.36579 13.6158 1.46569 13.2733 0.666788C13.2733 0.666788 12.4867 0.433455 10.6667 1.65345C9.13868 1.23934 7.528 1.23934 6.00001 1.65345C4.18001 0.433455 3.39334 0.666788 3.39334 0.666788C3.05093 1.46569 3.02944 2.36579 3.33334 3.18012C2.68676 3.85925 2.32836 4.76243 2.33334 5.70012C2.33334 9.31345 4.53334 10.1068 6.62668 10.3668C6.40734 10.5934 6.23819 10.8637 6.13022 11.1601C6.02225 11.4564 5.97788 11.7722 6.00001 12.0868V14.6668M6.00001 12.6668C2.66668 13.6668 2.66668 11.0001 1.33334 10.6668L6.00001 12.6668Z" stroke="#4A5367" stroke-linecap="round" stroke-linejoin="round"/>
</svg>
