<svg width="16" height="16" viewBox="0 0 16 16" fill="none" xmlns="http://www.w3.org/2000/svg">
<path d="M10.6665 5.33337C11.7274 5.33337 12.7448 5.7548 13.4949 6.50495C14.2451 7.25509 14.6665 8.27251 14.6665 9.33337V14H11.9998V9.33337C11.9998 8.97975 11.8594 8.64061 11.6093 8.39057C11.3593 8.14052 11.0201 8.00004 10.6665 8.00004C10.3129 8.00004 9.97374 8.14052 9.7237 8.39057C9.47365 8.64061 9.33317 8.97975 9.33317 9.33337V14H6.6665V9.33337C6.6665 8.27251 7.08793 7.25509 7.83808 6.50495C8.58822 5.7548 9.60564 5.33337 10.6665 5.33337V5.33337Z" stroke="#4A5367" stroke-linecap="round" stroke-linejoin="round"/>
<path d="M4.00016 6H1.3335V14H4.00016V6Z" stroke="#4A5367" stroke-linecap="round" stroke-linejoin="round"/>
<path d="M2.66683 4.00004C3.40321 4.00004 4.00016 3.40309 4.00016 2.66671C4.00016 1.93033 3.40321 1.33337 2.66683 1.33337C1.93045 1.33337 1.3335 1.93033 1.3335 2.66671C1.3335 3.40309 1.93045 4.00004 2.66683 4.00004Z" stroke="#4A5367" stroke-linecap="round" stroke-linejoin="round"/>
</svg>
