<svg width="16" height="16" viewBox="0 0 16 16" fill="none" xmlns="http://www.w3.org/2000/svg">
<path d="M15.3332 1.99999C14.6948 2.45031 13.9879 2.79473 13.2398 3.01999C12.8383 2.55833 12.3047 2.23112 11.7112 2.08261C11.1177 1.9341 10.4928 1.97145 9.92122 2.18963C9.34961 2.4078 8.8588 2.79626 8.51516 3.30247C8.17152 3.80868 7.99164 4.40821 7.99984 5.01999V5.68666C6.82826 5.71704 5.66735 5.4572 4.62051 4.93029C3.57367 4.40338 2.67338 3.62575 1.99984 2.66666C1.99984 2.66666 -0.666829 8.66666 5.33317 11.3333C3.96019 12.2653 2.32461 12.7326 0.666504 12.6667C6.6665 16 13.9998 12.6667 13.9998 4.99999C13.9992 4.81429 13.9814 4.62905 13.9465 4.44666C14.6269 3.77565 15.1071 2.92847 15.3332 1.99999V1.99999Z" stroke="#4A5367" stroke-linecap="round" stroke-linejoin="round"/>
</svg>
