<svg width="16" height="10" viewBox="0 0 16 10" fill="none" xmlns="http://www.w3.org/2000/svg">
<path d="M6.58254 4.51988C6.91457 4.35287 7.16559 4.16685 7.3376 3.96584C7.64363 3.60381 7.79464 3.12377 7.79464 2.52872C7.79464 1.94967 7.64363 1.45463 7.3416 1.0396C6.83756 0.363542 5.98449 0.0175132 4.77839 -0.000488281H0V9.75331H4.45537C4.95741 9.75331 5.42245 9.71031 5.85248 9.6223C6.28252 9.53329 6.65455 9.37028 6.96957 9.13226C7.2496 8.92524 7.48361 8.66822 7.66963 8.3652C7.96365 7.90716 8.11067 7.38812 8.11067 6.81007C8.11067 6.25002 7.98166 5.77299 7.72563 5.38095C7.46661 4.98892 7.08658 4.7019 6.58254 4.51988ZM1.97116 1.69365H4.12334C4.59638 1.69365 4.98641 1.74465 5.29243 1.84566C5.64646 1.99268 5.82348 2.2917 5.82348 2.74774C5.82348 3.15677 5.68847 3.44279 5.42145 3.60381C5.15242 3.76482 4.80339 3.84583 4.37536 3.84583H1.97116V1.69365ZM5.37444 7.88916C5.13642 8.00417 4.80139 8.06117 4.37236 8.06117H1.97116V5.45996H4.40536C4.8294 5.46296 5.15942 5.51896 5.39544 5.62397C5.81548 5.81399 6.02449 6.16202 6.02449 6.67106C6.02449 7.27111 5.80848 7.67514 5.37444 7.88916Z" fill="white"/>
<path d="M14.4622 0.45459H10.2248V1.66869H14.4622V0.45459Z" fill="white"/>
<path d="M15.9342 5.24585C15.8462 4.6808 15.6522 4.18376 15.3502 3.75473C15.0191 3.26869 14.5991 2.91266 14.0881 2.68764C13.579 2.46162 13.006 2.34862 12.3679 2.34962C11.2968 2.34962 10.4268 2.68464 9.75372 3.3497C9.08267 4.01675 8.74664 4.97583 8.74664 6.22593C8.74664 7.55904 9.11767 8.52211 9.86373 9.11316C10.6068 9.70521 11.4649 10.0002 12.4389 10.0002C13.618 10.0002 14.5351 9.64921 15.1902 8.94915C15.6092 8.50711 15.8462 8.07208 15.8982 7.64504H13.9461C13.8331 7.85606 13.702 8.02107 13.552 8.14108C13.28 8.3611 12.926 8.47111 12.4919 8.47111C12.0789 8.47111 11.7289 8.3801 11.4369 8.19909C10.9548 7.90906 10.7028 7.40102 10.6708 6.67797H15.9982C16.0062 6.05492 15.9862 5.57588 15.9342 5.24585ZM10.7188 5.43286C10.7888 4.96383 10.9588 4.5918 11.2288 4.31677C11.4989 4.04275 11.8809 3.90474 12.3699 3.90374C12.821 3.90374 13.198 4.03275 13.505 4.29177C13.8081 4.55279 13.9791 4.93182 14.0141 5.43286H10.7188Z" fill="white"/>
</svg>
