<svg width="16" height="16" viewBox="0 0 16 16" fill="none" xmlns="http://www.w3.org/2000/svg">
<path d="M13.179 2.79942L12.9172 3.16569L12.7874 3.34732C12.7873 3.34747 12.7872 3.34761 12.7871 3.34776C12.7871 3.34779 12.7871 3.34783 12.787 3.34786C12.7061 3.46123 12.544 3.63173 12.3434 3.83245L12.3432 3.83264C12.1183 4.05754 11.8738 4.27032 11.6102 4.4708L11.6101 4.47087C11.3384 4.6774 10.9821 4.9034 10.5483 5.14867L13.179 2.79942ZM13.179 2.79942L12.8421 2.50077M13.179 2.79942L12.8421 2.50077M12.8421 2.50077C11.4657 1.2806 9.84407 0.66669 8.00013 0.66669C7.43039 0.66669 6.85299 0.737899 6.26862 0.878405L5.51858 1.05875L5.98947 1.66976C6.88113 2.82675 7.72099 4.13036 8.50839 5.58216L8.71622 5.96536M12.8421 2.50077L8.71622 5.96536M8.71622 5.96536L9.12417 5.81168M8.71622 5.96536L9.12417 5.81168M9.12417 5.81168C9.62633 5.62252 10.1011 5.40157 10.5482 5.14871L9.12417 5.81168ZM8.00019 15.3335H8.00013C6.53789 15.3335 5.20208 14.9376 4.00305 14.1521L4.00271 14.1529L3.99005 14.1436C3.76518 13.9956 3.54512 13.8339 3.32996 13.6585L3.60897 13.2978L3.34692 13.1788C3.61669 12.585 4.00887 12.0252 4.51404 11.498C5.00337 10.9872 5.48365 10.5655 5.95552 10.2396L5.95571 10.2394C6.41165 9.92482 6.9052 9.62961 7.43583 9.35324L7.43614 9.35308C7.94591 9.08803 8.32041 8.90468 8.538 8.82038M8.00019 15.3335L9.16682 9.11446M8.00019 15.3335C8.98454 15.3333 9.93894 15.1392 10.8602 14.7527L11.2278 14.5985L11.1593 14.2058C10.8617 12.497 10.3661 10.7368 9.67573 8.92589L9.55302 8.60399H9.20852H9.18754H9.0684L8.9654 8.65603M8.00019 15.3335L9.16682 9.11446M8.538 8.82038C8.5381 8.82034 8.53819 8.8203 8.53829 8.82026L8.71885 9.28653L8.5377 8.8205C8.5378 8.82046 8.5379 8.82042 8.538 8.82038ZM8.538 8.82038C8.71214 8.75269 8.85488 8.69773 8.9654 8.65603M8.9654 8.65603L8.96205 8.65772L8.94133 8.66819L9.16682 9.11446M8.9654 8.65603C8.97412 8.65274 8.98265 8.64953 8.99097 8.6464L9.09139 8.9137L9.16682 9.11446M14.6315 8.39662L14.7249 7.92847L14.4569 7.9319L14.3336 7.93347C14.3332 7.90116 14.3326 7.86894 14.3317 7.83681C14.2587 7.82477 14.1776 7.81147 14.0885 7.79698C13.9394 7.77268 13.7725 7.75017 13.5886 7.7293M14.6315 8.39662C14.5685 8.38412 14.4871 8.36933 14.3871 8.35275C14.2833 8.33554 14.1569 8.31468 14.0082 8.29049L14.0081 8.29047C13.8687 8.26776 13.7101 8.24629 13.5322 8.22611M14.6315 8.39662C14.6316 8.39665 14.6318 8.39668 14.6319 8.39671M14.6315 8.39662L14.6319 8.39671M13.5322 8.22611C13.5323 8.22611 13.5323 8.22612 13.5324 8.22612L13.5886 7.7293M13.5322 8.22611L13.5886 7.7293M13.5322 8.22611C13.3538 8.20591 13.1626 8.18734 12.9584 8.17033L12.9582 8.17031C12.7576 8.15351 12.542 8.14014 12.3115 8.12987M13.5886 7.7293C13.4045 7.70846 13.2084 7.68942 12.9999 7.67205C12.7916 7.65461 12.5694 7.64086 12.3334 7.63035C12.097 7.61999 11.8575 7.61473 11.6144 7.61473C11.3716 7.61473 11.1162 7.62178 10.8489 7.63557L9.52921 7.71856C9.56174 7.80178 9.60048 7.89307 9.64497 7.9668L9.81525 8.24904L10.1418 8.20376C10.3771 8.17113 10.6213 8.14787 10.8745 8.13491L10.8747 8.1349C11.1344 8.1215 11.3812 8.11473 11.6144 8.11473C11.8503 8.11473 12.0825 8.11983 12.3115 8.12987M12.3115 8.12987L12.3333 7.63104L12.3111 8.12985C12.3112 8.12986 12.3114 8.12986 12.3115 8.12987ZM14.6319 8.39671L14.7357 8.41742L15.3414 8.53826L15.3335 7.9207C15.3115 6.1969 14.7545 4.66358 13.6682 3.33907L13.3176 2.91164L12.9274 3.30322L12.9169 3.31373L12.8922 3.33858L12.8711 3.36663C12.8121 3.44525 12.7495 3.52599 12.6831 3.60905C12.6372 3.6662 12.5102 3.7988 12.2747 4.0237L12.2746 4.02378C12.0558 4.2327 11.8237 4.43058 11.578 4.61752C11.3395 4.79861 11.0114 5.01279 10.5869 5.26089C10.1738 5.50204 9.7385 5.71549 9.28063 5.90141L8.7909 6.10026L9.01662 6.5782C9.18487 6.93444 9.33306 7.25414 9.46146 7.53723C9.4794 7.5895 9.50312 7.65182 9.5292 7.71853L14.6319 8.39671ZM4.23656 1.50477L4.23659 1.50476C5.38393 0.835132 6.63525 0.5 8.00024 0.5C9.36533 0.5 10.6163 0.83511 11.7638 1.50475C12.9151 2.17668 13.8235 3.08515 14.4955 4.23636C15.1649 5.38366 15.5 6.63501 15.5 8.00001C15.5 9.3649 15.1649 10.6162 14.4953 11.7637C13.8234 12.9149 12.915 13.8236 11.7639 14.4953L11.7638 14.4953C10.6164 15.1649 9.36504 15.5 8.00009 15.5C6.63518 15.5 5.38397 15.1649 4.23646 14.4953C3.08515 13.8233 2.17668 12.9148 1.50475 11.7636C0.835204 10.616 0.5 9.36489 0.5 8.00002C0.5 6.63515 0.835128 5.38383 1.50486 4.23634C2.17683 3.08504 3.08529 2.17658 4.23656 1.50477ZM2.25438 3.44938L2.25435 3.44942C1.5397 4.35025 1.06192 5.36568 0.823543 6.48987L0.695534 7.09355L1.31264 7.09358C3.45458 7.0937 5.60144 6.80991 7.75238 6.24387L8.37863 6.07907L8.06075 5.51489C7.21851 4.0201 6.3596 2.68861 5.48321 1.52242L5.2387 1.19706L4.87048 1.37045C3.84143 1.85503 2.9682 2.5498 2.25438 3.44938ZM1.15941 10.6459L1.15942 10.6459C1.48658 11.4822 1.94865 12.2337 2.54479 12.8969L3.01097 13.4155L3.35254 12.8075C3.67865 12.2271 4.08249 11.6822 4.56588 11.1726L4.56598 11.1725C5.05815 10.6533 5.52609 10.2463 5.96899 9.94452C6.43748 9.62535 6.87732 9.3527 7.2887 9.125C7.70494 8.89491 8.02389 8.74254 8.25278 8.65786L8.61385 8.53099C8.64586 8.52267 8.68747 8.51141 8.73783 8.49747L8.73845 8.49729C8.80707 8.4782 8.88908 8.45267 8.96091 8.41727L9.38618 8.20767L9.19946 7.77187C9.04774 7.41776 8.85822 7.02122 8.63202 6.58309L8.44178 6.21459L8.04446 6.33343C5.93626 6.96399 3.64816 7.28125 1.17712 7.28125H0.742785L0.682039 7.71132C0.670163 7.7954 0.66669 7.8965 0.66669 8.00002C0.66669 8.92183 0.830491 9.80507 1.15941 10.6459ZM14.1704 11.9642L14.1704 11.9641C14.722 11.1103 15.0801 10.175 15.2439 9.16307L15.3149 8.72444L14.8876 8.60242C13.3657 8.16774 11.8723 8.05967 10.4128 8.28729L9.81199 8.38099L10.0201 8.9524C10.6154 10.5872 11.0517 12.188 11.3312 13.7546L11.4662 14.5115L12.1033 14.0811C12.9307 13.522 13.6205 12.8149 14.1704 11.9642Z" stroke="white"/>
</svg>
