<svg width="16" height="16" viewBox="0 0 16 16" fill="none" xmlns="http://www.w3.org/2000/svg">
<path d="M10.6666 14.6667V12.0867C10.6917 11.7688 10.6487 11.4492 10.5407 11.1492C10.4326 10.8492 10.2619 10.5756 10.04 10.3467C12.1333 10.1133 14.3333 9.32 14.3333 5.68C14.3331 4.74922 13.9751 3.85413 13.3333 3.18C13.6372 2.36567 13.6157 1.46557 13.2733 0.666666C13.2733 0.666666 12.4866 0.433332 10.6666 1.65333C9.13865 1.23921 7.52797 1.23921 5.99998 1.65333C4.17998 0.433332 3.39331 0.666666 3.39331 0.666666C3.0509 1.46557 3.02941 2.36567 3.33331 3.18C2.68673 3.85913 2.32833 4.76231 2.33331 5.7C2.33331 9.31333 4.53331 10.1067 6.62665 10.3667C6.40731 10.5933 6.23816 10.8636 6.13019 11.1599C6.02222 11.4563 5.97785 11.772 5.99998 12.0867V14.6667M5.99998 12.6667C2.66665 13.6667 2.66665 11 1.33331 10.6667L5.99998 12.6667Z" stroke="white" stroke-linecap="round" stroke-linejoin="round"/>
</svg>
