<svg width="16" height="16" viewBox="0 0 16 16" fill="none" xmlns="http://www.w3.org/2000/svg">
<path d="M10.6667 5.33337C11.7276 5.33337 12.745 5.7548 13.4951 6.50495C14.2453 7.25509 14.6667 8.27251 14.6667 9.33337V14H12V9.33337C12 8.97975 11.8595 8.64061 11.6095 8.39057C11.3594 8.14052 11.0203 8.00004 10.6667 8.00004C10.3131 8.00004 9.97393 8.14052 9.72388 8.39057C9.47383 8.64061 9.33335 8.97975 9.33335 9.33337V14H6.66669V9.33337C6.66669 8.27251 7.08811 7.25509 7.83826 6.50495C8.58841 5.7548 9.60582 5.33337 10.6667 5.33337V5.33337Z" stroke="white" stroke-linecap="round" stroke-linejoin="round"/>
<path d="M3.99998 6H1.33331V14H3.99998V6Z" stroke="white" stroke-linecap="round" stroke-linejoin="round"/>
<path d="M2.66665 4.00004C3.40303 4.00004 3.99998 3.40309 3.99998 2.66671C3.99998 1.93033 3.40303 1.33337 2.66665 1.33337C1.93027 1.33337 1.33331 1.93033 1.33331 2.66671C1.33331 3.40309 1.93027 4.00004 2.66665 4.00004Z" stroke="white" stroke-linecap="round" stroke-linejoin="round"/>
</svg>
