<svg width="16" height="16" viewBox="0 0 16 16" fill="none" xmlns="http://www.w3.org/2000/svg">
<path d="M15.3334 1.99999C14.6949 2.45031 13.9881 2.79473 13.24 3.01999C12.8385 2.55833 12.3049 2.23112 11.7114 2.08261C11.1178 1.9341 10.493 1.97145 9.92141 2.18963C9.3498 2.4078 8.85898 2.79626 8.51534 3.30247C8.1717 3.80868 7.99182 4.40821 8.00002 5.01999V5.68666C6.82844 5.71704 5.66754 5.4572 4.62069 4.93029C3.57385 4.40338 2.67356 3.62575 2.00002 2.66666C2.00002 2.66666 -0.666646 8.66666 5.33335 11.3333C3.96037 12.2653 2.32479 12.7326 0.666687 12.6667C6.66669 16 14 12.6667 14 4.99999C13.9994 4.81429 13.9816 4.62905 13.9467 4.44666C14.6271 3.77565 15.1072 2.92847 15.3334 1.99999V1.99999Z" stroke="white" stroke-linecap="round" stroke-linejoin="round"/>
</svg>
